<svg width="40" height="40" viewBox="0 0 40 40" fill="none" xmlns="http://www.w3.org/2000/svg">
<g filter="url(#filter0_d_3_8)">
<rect x="4" y="16" width="22.6274" height="22.6274" rx="1" transform="rotate(-45 4 16)" fill="#2C3639"/>
</g>
<path d="M17.1616 26.4741C17.1616 26.4741 24.6204 11.9912 24.6213 11.9891L25.0352 11.1654C23.4307 11.5779 19.8457 12.3634 19.8342 12.3953C20.2092 11.4565 21.8226 7.24078 21.8922 7.24078C20.3585 7.24078 18.8249 7.24078 17.2913 7.24078L16.8245 9.22955L14.8612 16.4378L20.0476 15.1744L17.1616 26.4741Z" fill="#DCD7C9"/>
<path d="M8.94076 17.54V13.1763H10.4152C10.7575 13.1763 11.0374 13.2381 11.2547 13.3617C11.4734 13.4839 11.6354 13.6494 11.7405 13.8582C11.8456 14.067 11.8981 14.2999 11.8981 14.557C11.8981 14.8141 11.8456 15.0478 11.7405 15.258C11.6368 15.4682 11.4763 15.6359 11.2589 15.7609C11.0416 15.8844 10.7632 15.9462 10.4237 15.9462H9.3669V15.4775H10.4067C10.641 15.4775 10.8293 15.437 10.9713 15.356C11.1133 15.2751 11.2163 15.1657 11.2803 15.0279C11.3456 14.8887 11.3783 14.7317 11.3783 14.557C11.3783 14.3823 11.3456 14.2261 11.2803 14.0883C11.2163 13.9505 11.1126 13.8425 10.9692 13.7644C10.8257 13.6849 10.6354 13.6451 10.3981 13.6451H9.46917V17.54H8.94076Z" fill="#DCD7C9"/>
<path d="M27.269 17.54V13.1763H29.9025V13.6451H27.7974V15.1195H29.7661V15.5883H27.7974V17.0712H29.9366V17.54H27.269Z" fill="#DCD7C9"/>
<defs>
<filter id="filter0_d_3_8" x="0.414215" y="0.414215" width="39.1716" height="39.1716" filterUnits="userSpaceOnUse" color-interpolation-filters="sRGB">
<feFlood flood-opacity="0" result="BackgroundImageFix"/>
<feColorMatrix in="SourceAlpha" type="matrix" values="0 0 0 0 0 0 0 0 0 0 0 0 0 0 0 0 0 0 127 0" result="hardAlpha"/>
<feOffset dy="4"/>
<feGaussianBlur stdDeviation="2"/>
<feComposite in2="hardAlpha" operator="out"/>
<feColorMatrix type="matrix" values="0 0 0 0 0 0 0 0 0 0 0 0 0 0 0 0 0 0 0.25 0"/>
<feBlend mode="normal" in2="BackgroundImageFix" result="effect1_dropShadow_3_8"/>
<feBlend mode="normal" in="SourceGraphic" in2="effect1_dropShadow_3_8" result="shape"/>
</filter>
</defs>
</svg>
